<?xml version="1.0" standalone="no"?>
<!DOCTYPE svg PUBLIC "-//W3C//DTD SVG 20010904//EN"
 "http://www.w3.org/TR/2001/REC-SVG-20010904/DTD/svg10.dtd">
<svg version="1.0" xmlns="http://www.w3.org/2000/svg"
 width="1080.001993pt" height="113.414502pt" viewBox="0 0 1080.001993 113.414502"
 preserveAspectRatio="xMidYMid meet">
<metadata>
Created by potrace 1.12, written by Peter Selinger 2001-2015
</metadata>
<g transform="translate(0.001993,113.414502) scale(0.100000,-0.100000)"
fill="#000000" stroke="none">
<path d="M7738 1115 c-60 -32 -189 -75 -222 -75 -14 0 -87 -31 -163 -69 l-137
-70 -95 45 c-135 64 -142 64 -257 14 -70 -31 -119 -45 -174 -51 -43 -5 -111
-15 -151 -22 -106 -20 -225 -21 -284 -3 -27 9 -77 18 -110 22 -50 5 -73 15
-142 60 -89 58 -98 61 -127 39 -11 -8 -29 -15 -41 -15 -11 0 -36 -13 -55 -29
-49 -40 -190 -99 -268 -113 -37 -6 -112 -12 -167 -14 -55 -1 -146 -5 -201 -9
-101 -6 -101 -6 -153 25 -43 27 -64 33 -129 37 -126 7 -131 7 -150 -11 -10 -9
-32 -16 -48 -16 -17 0 -35 -5 -41 -11 -7 -7 -28 -13 -48 -15 -19 -2 -48 -12
-64 -23 -23 -17 -37 -19 -87 -14 -52 5 -65 11 -109 51 -56 50 -84 64 -165 82
-30 7 -68 23 -83 36 -16 13 -39 24 -52 24 -22 0 -149 -46 -250 -91 -22 -10
-83 -36 -135 -59 -52 -23 -128 -60 -168 -82 -80 -44 -100 -45 -182 -12 -55 22
-231 22 -319 0 -40 -10 -127 -14 -301 -15 l-245 0 -70 46 c-38 25 -89 61 -112
79 -23 19 -50 34 -60 34 -10 0 -29 7 -41 16 -13 9 -40 16 -60 16 -20 0 -47 6
-58 13 -12 8 -48 16 -80 18 -33 3 -72 10 -87 16 -16 6 -43 11 -61 11 -19 0
-53 7 -77 16 -24 8 -70 19 -102 24 -88 13 -284 -41 -697 -191 -233 -84 -287
-100 -423 -125 -121 -23 -160 -25 -313 -22 l-174 3 0 -342 0 -343 5400 0 5400
0 0 363 0 363 -67 17 c-38 10 -108 29 -158 42 -232 61 -271 68 -388 63 -71 -3
-134 0 -174 9 -35 7 -119 17 -186 22 -88 7 -136 16 -171 31 -85 38 -207 12
-383 -80 -156 -83 -220 -107 -347 -131 -84 -16 -131 -20 -200 -16 -198 13
-288 42 -431 139 -508 346 -482 332 -557 293z"/>
</g>
</svg>
